<mxfile host="app.diagrams.net" modified="2021-05-07T13:34:47.336Z" agent="5.0 (Windows NT 6.1; Win64; x64) AppleWebKit/537.36 (KHTML, like Gecko) Chrome/90.0.4430.93 Safari/537.36" etag="1DiOJTtfqm8hdYJzvTI5" version="14.6.11" type="github">
  <diagram id="Dh_qDPzgqrRzBCMRFW5f" name="Page-1">
    <mxGraphModel dx="2062" dy="1157" grid="1" gridSize="10" guides="1" tooltips="1" connect="1" arrows="1" fold="1" page="1" pageScale="1" pageWidth="827" pageHeight="1169" math="0" shadow="0">
      <root>
        <mxCell id="0" />
        <mxCell id="1" parent="0" />
        <mxCell id="6-K_7Z8hWviK-rHHWbJY-27" style="edgeStyle=orthogonalEdgeStyle;rounded=0;orthogonalLoop=1;jettySize=auto;html=1;exitX=0.25;exitY=1;exitDx=0;exitDy=0;entryX=0.5;entryY=0;entryDx=0;entryDy=0;" edge="1" parent="1" source="6-K_7Z8hWviK-rHHWbJY-1" target="6-K_7Z8hWviK-rHHWbJY-2">
          <mxGeometry relative="1" as="geometry" />
        </mxCell>
        <mxCell id="6-K_7Z8hWviK-rHHWbJY-28" style="edgeStyle=orthogonalEdgeStyle;rounded=0;orthogonalLoop=1;jettySize=auto;html=1;exitX=0.75;exitY=1;exitDx=0;exitDy=0;entryX=0.5;entryY=0;entryDx=0;entryDy=0;" edge="1" parent="1" source="6-K_7Z8hWviK-rHHWbJY-1" target="6-K_7Z8hWviK-rHHWbJY-3">
          <mxGeometry relative="1" as="geometry" />
        </mxCell>
        <mxCell id="6-K_7Z8hWviK-rHHWbJY-31" style="edgeStyle=orthogonalEdgeStyle;rounded=0;orthogonalLoop=1;jettySize=auto;html=1;entryX=0.25;entryY=0;entryDx=0;entryDy=0;" edge="1" parent="1" source="6-K_7Z8hWviK-rHHWbJY-1" target="6-K_7Z8hWviK-rHHWbJY-3">
          <mxGeometry relative="1" as="geometry">
            <mxPoint x="500" y="410" as="targetPoint" />
            <Array as="points">
              <mxPoint x="390" y="370" />
              <mxPoint x="500" y="370" />
            </Array>
          </mxGeometry>
        </mxCell>
        <mxCell id="6-K_7Z8hWviK-rHHWbJY-1" value="负载均衡器" style="rounded=0;whiteSpace=wrap;html=1;" vertex="1" parent="1">
          <mxGeometry x="280" y="220" width="220" height="60" as="geometry" />
        </mxCell>
        <mxCell id="6-K_7Z8hWviK-rHHWbJY-7" style="edgeStyle=orthogonalEdgeStyle;rounded=0;orthogonalLoop=1;jettySize=auto;html=1;entryX=0;entryY=0.5;entryDx=0;entryDy=0;" edge="1" parent="1" source="6-K_7Z8hWviK-rHHWbJY-2" target="6-K_7Z8hWviK-rHHWbJY-6">
          <mxGeometry relative="1" as="geometry" />
        </mxCell>
        <mxCell id="6-K_7Z8hWviK-rHHWbJY-8" value="注册自己" style="edgeLabel;html=1;align=center;verticalAlign=middle;resizable=0;points=[];" vertex="1" connectable="0" parent="6-K_7Z8hWviK-rHHWbJY-7">
          <mxGeometry x="-0.2" y="-3" relative="1" as="geometry">
            <mxPoint as="offset" />
          </mxGeometry>
        </mxCell>
        <mxCell id="6-K_7Z8hWviK-rHHWbJY-19" style="edgeStyle=orthogonalEdgeStyle;rounded=0;orthogonalLoop=1;jettySize=auto;html=1;exitX=0.25;exitY=1;exitDx=0;exitDy=0;entryX=0.25;entryY=1;entryDx=0;entryDy=0;" edge="1" parent="1" source="6-K_7Z8hWviK-rHHWbJY-2" target="6-K_7Z8hWviK-rHHWbJY-6">
          <mxGeometry relative="1" as="geometry">
            <Array as="points">
              <mxPoint x="230" y="500" />
              <mxPoint x="150" y="500" />
              <mxPoint x="150" y="660" />
              <mxPoint x="370" y="660" />
            </Array>
          </mxGeometry>
        </mxCell>
        <mxCell id="6-K_7Z8hWviK-rHHWbJY-20" value="发布上下线信息/跨msgpipe消息" style="edgeLabel;html=1;align=center;verticalAlign=middle;resizable=0;points=[];" vertex="1" connectable="0" parent="6-K_7Z8hWviK-rHHWbJY-19">
          <mxGeometry x="-0.2588" y="-2" relative="1" as="geometry">
            <mxPoint x="22" y="25" as="offset" />
          </mxGeometry>
        </mxCell>
        <mxCell id="6-K_7Z8hWviK-rHHWbJY-39" style="edgeStyle=orthogonalEdgeStyle;rounded=0;orthogonalLoop=1;jettySize=auto;html=1;exitX=0.75;exitY=1;exitDx=0;exitDy=0;entryX=0;entryY=0;entryDx=0;entryDy=52.5;entryPerimeter=0;" edge="1" parent="1" source="6-K_7Z8hWviK-rHHWbJY-2" target="6-K_7Z8hWviK-rHHWbJY-34">
          <mxGeometry relative="1" as="geometry" />
        </mxCell>
        <mxCell id="6-K_7Z8hWviK-rHHWbJY-42" value="存储重要信息" style="edgeLabel;html=1;align=center;verticalAlign=middle;resizable=0;points=[];" vertex="1" connectable="0" parent="6-K_7Z8hWviK-rHHWbJY-39">
          <mxGeometry x="0.4662" y="1" relative="1" as="geometry">
            <mxPoint as="offset" />
          </mxGeometry>
        </mxCell>
        <mxCell id="6-K_7Z8hWviK-rHHWbJY-2" value="msgpipe1" style="rounded=0;whiteSpace=wrap;html=1;" vertex="1" parent="1">
          <mxGeometry x="200" y="420" width="120" height="60" as="geometry" />
        </mxCell>
        <mxCell id="6-K_7Z8hWviK-rHHWbJY-9" style="edgeStyle=orthogonalEdgeStyle;rounded=0;orthogonalLoop=1;jettySize=auto;html=1;entryX=1;entryY=0.5;entryDx=0;entryDy=0;" edge="1" parent="1" source="6-K_7Z8hWviK-rHHWbJY-3" target="6-K_7Z8hWviK-rHHWbJY-6">
          <mxGeometry relative="1" as="geometry" />
        </mxCell>
        <mxCell id="6-K_7Z8hWviK-rHHWbJY-10" value="&lt;span style=&quot;color: rgba(0 , 0 , 0 , 0) ; font-family: monospace ; font-size: 0px ; background-color: rgb(248 , 249 , 250)&quot;&gt;%3CmxGraphModel%3E%3Croot%3E%3CmxCell%20id%3D%220%22%2F%3E%3CmxCell%20id%3D%221%22%20parent%3D%220%22%2F%3E%3CmxCell%20id%3D%222%22%20value%3D%22%E8%AE%BE%E7%BD%AE%E8%87%AA%E5%B7%B1%E5%88%B0hash%20serverlist%22%20style%3D%22edgeLabel%3Bhtml%3D1%3Balign%3Dcenter%3BverticalAlign%3Dmiddle%3Bresizable%3D0%3Bpoints%3D%5B%5D%3B%22%20vertex%3D%221%22%20connectable%3D%220%22%20parent%3D%221%22%3E%3CmxGeometry%20x%3D%22337%22%20y%3D%22518%22%20as%3D%22geometry%22%2F%3E%3C%2FmxCell%3E%3C%2Froot%3E%3C%2FmxGraphModel%3&lt;/span&gt;" style="edgeLabel;html=1;align=center;verticalAlign=middle;resizable=0;points=[];" vertex="1" connectable="0" parent="6-K_7Z8hWviK-rHHWbJY-9">
          <mxGeometry x="-0.2522" y="2" relative="1" as="geometry">
            <mxPoint as="offset" />
          </mxGeometry>
        </mxCell>
        <mxCell id="6-K_7Z8hWviK-rHHWbJY-11" value="注册自己" style="edgeLabel;html=1;align=center;verticalAlign=middle;resizable=0;points=[];" vertex="1" connectable="0" parent="6-K_7Z8hWviK-rHHWbJY-9">
          <mxGeometry x="-0.2348" y="1" relative="1" as="geometry">
            <mxPoint x="29" as="offset" />
          </mxGeometry>
        </mxCell>
        <mxCell id="6-K_7Z8hWviK-rHHWbJY-40" style="edgeStyle=orthogonalEdgeStyle;rounded=0;orthogonalLoop=1;jettySize=auto;html=1;exitX=0.75;exitY=1;exitDx=0;exitDy=0;entryX=1;entryY=0.5;entryDx=0;entryDy=0;entryPerimeter=0;" edge="1" parent="1" source="6-K_7Z8hWviK-rHHWbJY-3" target="6-K_7Z8hWviK-rHHWbJY-34">
          <mxGeometry relative="1" as="geometry" />
        </mxCell>
        <mxCell id="6-K_7Z8hWviK-rHHWbJY-41" value="存储重要信息" style="edgeLabel;html=1;align=center;verticalAlign=middle;resizable=0;points=[];" vertex="1" connectable="0" parent="6-K_7Z8hWviK-rHHWbJY-40">
          <mxGeometry x="0.2569" y="1" relative="1" as="geometry">
            <mxPoint as="offset" />
          </mxGeometry>
        </mxCell>
        <mxCell id="6-K_7Z8hWviK-rHHWbJY-3" value="msgpipe2" style="rounded=0;whiteSpace=wrap;html=1;" vertex="1" parent="1">
          <mxGeometry x="470" y="420" width="120" height="60" as="geometry" />
        </mxCell>
        <mxCell id="6-K_7Z8hWviK-rHHWbJY-25" style="edgeStyle=orthogonalEdgeStyle;rounded=0;orthogonalLoop=1;jettySize=auto;html=1;exitX=0.5;exitY=1;exitDx=0;exitDy=0;entryX=0.25;entryY=0;entryDx=0;entryDy=0;" edge="1" parent="1" source="6-K_7Z8hWviK-rHHWbJY-4" target="6-K_7Z8hWviK-rHHWbJY-1">
          <mxGeometry relative="1" as="geometry" />
        </mxCell>
        <mxCell id="6-K_7Z8hWviK-rHHWbJY-4" value="客户端1" style="rounded=0;whiteSpace=wrap;html=1;" vertex="1" parent="1">
          <mxGeometry x="210" y="110" width="100" height="40" as="geometry" />
        </mxCell>
        <mxCell id="6-K_7Z8hWviK-rHHWbJY-26" style="edgeStyle=orthogonalEdgeStyle;rounded=0;orthogonalLoop=1;jettySize=auto;html=1;exitX=0.5;exitY=1;exitDx=0;exitDy=0;entryX=0.75;entryY=0;entryDx=0;entryDy=0;" edge="1" parent="1" source="6-K_7Z8hWviK-rHHWbJY-5" target="6-K_7Z8hWviK-rHHWbJY-1">
          <mxGeometry relative="1" as="geometry" />
        </mxCell>
        <mxCell id="6-K_7Z8hWviK-rHHWbJY-5" value="客户端2" style="rounded=0;whiteSpace=wrap;html=1;" vertex="1" parent="1">
          <mxGeometry x="360" y="110" width="100" height="40" as="geometry" />
        </mxCell>
        <mxCell id="6-K_7Z8hWviK-rHHWbJY-15" style="edgeStyle=orthogonalEdgeStyle;rounded=0;orthogonalLoop=1;jettySize=auto;html=1;exitX=0;exitY=0.75;exitDx=0;exitDy=0;entryX=0.5;entryY=1;entryDx=0;entryDy=0;" edge="1" parent="1" source="6-K_7Z8hWviK-rHHWbJY-6" target="6-K_7Z8hWviK-rHHWbJY-2">
          <mxGeometry relative="1" as="geometry" />
        </mxCell>
        <mxCell id="6-K_7Z8hWviK-rHHWbJY-16" value="获取severlist 订阅主题" style="edgeLabel;html=1;align=center;verticalAlign=middle;resizable=0;points=[];" vertex="1" connectable="0" parent="6-K_7Z8hWviK-rHHWbJY-15">
          <mxGeometry x="0.1644" y="1" relative="1" as="geometry">
            <mxPoint x="-9" y="-34" as="offset" />
          </mxGeometry>
        </mxCell>
        <mxCell id="6-K_7Z8hWviK-rHHWbJY-32" style="edgeStyle=orthogonalEdgeStyle;rounded=0;orthogonalLoop=1;jettySize=auto;html=1;exitX=0.5;exitY=1;exitDx=0;exitDy=0;entryX=0;entryY=0.5;entryDx=0;entryDy=0;" edge="1" parent="1" source="6-K_7Z8hWviK-rHHWbJY-6" target="6-K_7Z8hWviK-rHHWbJY-2">
          <mxGeometry relative="1" as="geometry">
            <Array as="points">
              <mxPoint x="400" y="680" />
              <mxPoint x="70" y="680" />
              <mxPoint x="70" y="450" />
            </Array>
          </mxGeometry>
        </mxCell>
        <mxCell id="6-K_7Z8hWviK-rHHWbJY-33" value="定期获取全量上线信息" style="edgeLabel;html=1;align=center;verticalAlign=middle;resizable=0;points=[];" vertex="1" connectable="0" parent="6-K_7Z8hWviK-rHHWbJY-32">
          <mxGeometry x="-0.481" relative="1" as="geometry">
            <mxPoint as="offset" />
          </mxGeometry>
        </mxCell>
        <mxCell id="6-K_7Z8hWviK-rHHWbJY-6" value="redis" style="rounded=0;whiteSpace=wrap;html=1;" vertex="1" parent="1">
          <mxGeometry x="340" y="580" width="120" height="60" as="geometry" />
        </mxCell>
        <mxCell id="6-K_7Z8hWviK-rHHWbJY-17" style="edgeStyle=orthogonalEdgeStyle;rounded=0;orthogonalLoop=1;jettySize=auto;html=1;exitX=1;exitY=0.75;exitDx=0;exitDy=0;entryX=0.5;entryY=1;entryDx=0;entryDy=0;" edge="1" parent="1" source="6-K_7Z8hWviK-rHHWbJY-6">
          <mxGeometry relative="1" as="geometry">
            <mxPoint x="620" y="625" as="sourcePoint" />
            <mxPoint x="540" y="480" as="targetPoint" />
          </mxGeometry>
        </mxCell>
        <mxCell id="6-K_7Z8hWviK-rHHWbJY-18" value="获取severlist 订阅主题" style="edgeLabel;html=1;align=center;verticalAlign=middle;resizable=0;points=[];" vertex="1" connectable="0" parent="6-K_7Z8hWviK-rHHWbJY-17">
          <mxGeometry x="0.1644" y="1" relative="1" as="geometry">
            <mxPoint y="-24" as="offset" />
          </mxGeometry>
        </mxCell>
        <mxCell id="6-K_7Z8hWviK-rHHWbJY-23" style="edgeStyle=orthogonalEdgeStyle;rounded=0;orthogonalLoop=1;jettySize=auto;html=1;exitX=1;exitY=0.5;exitDx=0;exitDy=0;entryX=0.75;entryY=1;entryDx=0;entryDy=0;" edge="1" parent="1" source="6-K_7Z8hWviK-rHHWbJY-3" target="6-K_7Z8hWviK-rHHWbJY-6">
          <mxGeometry relative="1" as="geometry">
            <mxPoint x="590" y="505" as="sourcePoint" />
            <mxPoint x="730" y="665" as="targetPoint" />
          </mxGeometry>
        </mxCell>
        <mxCell id="6-K_7Z8hWviK-rHHWbJY-24" value="发布上下线信息/跨msgpipe消息" style="edgeLabel;html=1;align=center;verticalAlign=middle;resizable=0;points=[];" vertex="1" connectable="0" parent="6-K_7Z8hWviK-rHHWbJY-23">
          <mxGeometry x="-0.2588" y="-2" relative="1" as="geometry">
            <mxPoint as="offset" />
          </mxGeometry>
        </mxCell>
        <mxCell id="6-K_7Z8hWviK-rHHWbJY-30" style="edgeStyle=orthogonalEdgeStyle;rounded=0;orthogonalLoop=1;jettySize=auto;html=1;exitX=0.5;exitY=1;exitDx=0;exitDy=0;entryX=0.945;entryY=-0.022;entryDx=0;entryDy=0;entryPerimeter=0;" edge="1" parent="1" source="6-K_7Z8hWviK-rHHWbJY-29" target="6-K_7Z8hWviK-rHHWbJY-1">
          <mxGeometry relative="1" as="geometry" />
        </mxCell>
        <mxCell id="6-K_7Z8hWviK-rHHWbJY-29" value="客户端3" style="rounded=0;whiteSpace=wrap;html=1;" vertex="1" parent="1">
          <mxGeometry x="500" y="110" width="100" height="40" as="geometry" />
        </mxCell>
        <mxCell id="6-K_7Z8hWviK-rHHWbJY-34" value="mysql" style="shape=cylinder3;whiteSpace=wrap;html=1;boundedLbl=1;backgroundOutline=1;size=15;" vertex="1" parent="1">
          <mxGeometry x="354" y="800" width="60" height="80" as="geometry" />
        </mxCell>
        <mxCell id="6-K_7Z8hWviK-rHHWbJY-37" style="edgeStyle=orthogonalEdgeStyle;rounded=0;orthogonalLoop=1;jettySize=auto;html=1;entryX=1;entryY=0.25;entryDx=0;entryDy=0;" edge="1" parent="1" source="6-K_7Z8hWviK-rHHWbJY-6" target="6-K_7Z8hWviK-rHHWbJY-3">
          <mxGeometry relative="1" as="geometry">
            <mxPoint x="414" y="642" as="sourcePoint" />
            <mxPoint x="650" y="450" as="targetPoint" />
            <Array as="points">
              <mxPoint x="414" y="680" />
              <mxPoint x="790" y="680" />
              <mxPoint x="790" y="435" />
            </Array>
          </mxGeometry>
        </mxCell>
        <mxCell id="6-K_7Z8hWviK-rHHWbJY-38" value="定期获取全量上线信息" style="edgeLabel;html=1;align=center;verticalAlign=middle;resizable=0;points=[];" vertex="1" connectable="0" parent="6-K_7Z8hWviK-rHHWbJY-37">
          <mxGeometry x="-0.481" relative="1" as="geometry">
            <mxPoint as="offset" />
          </mxGeometry>
        </mxCell>
      </root>
    </mxGraphModel>
  </diagram>
</mxfile>
